<svg xmlns="http://www.w3.org/2000/svg" viewBox="0 0 64 64" id="car-locator"><path fill="#fecb67" d="M61.45 48.53c-1.17.83-3.06 1.36-5.71 1.55H2.35c-3.62-1.14-2.62-9.14 0-10.73 3.21-1.97 8-2.18 13.54-2.66.24-.11.48-.22.71-.34 3.43-1.71 5.43-3.84 7.78-5.19 1.32-.75 2.74-1.27 4.59-1.33h29.84c1.76 0 3.2 4.18 3.74 8.91.13 1.15.21 2.34.22 3.51.01.2.01.4.01.59 1.85 1.05 1.75 5.56-1.33 5.69z"></path><path fill="#eeeae2" d="M.78 43.05h2.53c.62-.92 1.18-1.8 1.31-3.5-2.41-.54-3.28 1.32-3.84 3.5z"></path><path fill="#f0582f" d="M2.7 48.41c-.3 0-.53-.39-.53-.89s.23-.89.53-.89c.3 0 .53.39.53.89s-.23.89-.53.89zm13.43-9.29c-.51 0-.89-.2-.89-.46s.38-.46.89-.46.89.2.89.46c-.01.26-.39.46-.89.46z"></path><path fill="#696967" d="m33.46 31.67.29 6.11H21.24c-.51 0-.75-.62-.37-.96 3.19-2.91 6.38-5.15 12.59-5.15zm2.29 0 .29 6.11h9.34c1.58 0 1.58-6.11 0-6.11h-9.63zm12.8.52.24 5.11c.01.27.23.48.5.48h10.19c.37 0 .61-.38.45-.71l-2.41-5.11a.493.493 0 0 0-.45-.29h-8.02c-.29 0-.52.24-.5.52zm-23.57-.64-6.23 4.64c-.23.17-.51.28-.8.29-.59.02-1.03-.02-1.36-.12 3.43-1.71 5.43-3.84 7.78-5.19l.61.38z"></path><path fill="#f0582f" d="m62.78 42.25-2.63-1.73-.03-.6c-.63-.2-.96-.8-.59-1.14.86-.62 1.92-.55 3.03-.04.13 1.15.21 2.34.22 3.51z"></path><circle cx="11.4" cy="48.67" r="4.75" fill="#474748"></circle><path fill="#fff" d="M15.01 48.67c0 1.99-1.62 3.61-3.61 3.61-1.99 0-3.61-1.62-3.61-3.61 0-1.99 1.62-3.61 3.61-3.61 1.99 0 3.61 1.62 3.61 3.61z"></path><path fill="#474748" d="M10.57 45.68h1.65l-.82 1.44zM10.57 51.66l.83-1.43.82 1.43zM12.95 48.67l1.44-.82v1.65zM8.41 47.85l1.43.82-1.43.83z"></path><circle cx="11.4" cy="48.67" r="1" fill="#474748"></circle><circle cx="50.42" cy="48.67" r="4.75" fill="#474748"></circle><path fill="#fff" d="M54.03 48.67c0 1.99-1.62 3.61-3.61 3.61-1.99 0-3.61-1.62-3.61-3.61 0-1.99 1.62-3.61 3.61-3.61 2 0 3.61 1.62 3.61 3.61z"></path><path fill="#474748" d="M49.6 45.68h1.65l-.83 1.44zM49.6 51.66l.82-1.43.83 1.43zM51.98 48.67l1.43-.82v1.65zM47.43 47.85l1.44.82-1.44.83z"></path><circle cx="50.42" cy="48.67" r="1" fill="#474748"></circle><path fill="#f0582f" d="M53.37 16.72c0 3.39-6.14 10.99-6.14 10.99s-6.14-7.6-6.14-10.99 2.75-6.14 6.14-6.14 6.14 2.75 6.14 6.14z"></path><circle cx="47.23" cy="16.72" r="3.45" fill="#fff"></circle></svg>